<svg xmlns="http://www.w3.org/2000/svg" width="520" height="520" version="1"><g fill="#69499e"><path d="M394 290l8 7a75 75 0 0 1-96 114l-3-2-2-2-5-4-7-8-58-58a74 74 0 0 1-22-56v-2l1-6v-1l1-6 1-1 1-6h1l2-7 4-6 8-12 3-2c7-7 15-13 24-16l-49-50a142 142 0 0 0-27 23l-3 3-2 3-3 4-1 1-4 5v1l-4 6h2c-3 6-7 12-7 18-27 51-13 113 29 154l11 13 53 53 6 6 2 2a141 141 0 0 0 191-208l-53-54c8 31 8 63-2 94z"/><path d="M125 232l-7-8a75 75 0 0 1 106-105l7 7 58 58c15 16 23 36 22 56v3l-1 5v1l-1 6-1 1-2 6v1l-2 6h-1c-1 2-1 5-3 5-3 9-5 9-9 12l-2 3c-7 8-15 13-24 17l49 49a141 141 0 0 0 27-23l3-3 2-2 3-5 1-1 4-5v-1l4-5h-2c3-6 7-12 7-19 27-51 13-112-29-154l-11-12-53-54-6-6-2-1A141 141 0 0 0 71 272l53 53c-9-30-8-63 1-93z"/></g></svg>